<?xml version="1.0" standalone="no"?>
<!DOCTYPE svg PUBLIC "-//W3C//DTD SVG 20010904//EN"
 "http://www.w3.org/TR/2001/REC-SVG-20010904/DTD/svg10.dtd">
<svg version="1.0" xmlns="http://www.w3.org/2000/svg"
 width="700.000000pt" height="700.000000pt" viewBox="0 0 700.000000 700.000000"
 preserveAspectRatio="xMidYMid meet">
<metadata>
Created by potrace 1.14, written by Peter Selinger 2001-2017
</metadata>
<g transform="translate(0.000000,700.000000) scale(0.100000,-0.100000)"
fill="#000000" stroke="none">
<path d="M1638 6775 c-2 -2 -26 -7 -53 -10 -163 -20 -388 -91 -517 -165 -29
-16 -60 -33 -68 -37 -26 -12 -92 -56 -155 -103 -313 -232 -548 -609 -611 -980
-2 -14 -6 -34 -9 -45 -27 -124 -23 -390 8 -555 41 -210 141 -444 265 -620 86
-121 261 -297 379 -380 380 -267 848 -359 1299 -255 245 56 508 197 708 377
88 80 179 186 249 292 560 840 214 1979 -718 2366 -44 18 -93 37 -110 42 -80
24 -174 47 -215 54 -25 3 -56 9 -70 11 -30 6 -377 13 -382 8z"/>
<path d="M5005 6770 c-27 -4 -70 -11 -95 -14 -57 -9 -175 -41 -265 -73 -486
-173 -873 -603 -999 -1110 -30 -120 -34 -144 -43 -258 -10 -139 -4 -328 13
-386 3 -10 6 -30 8 -45 13 -100 77 -289 141 -415 341 -675 1072 -1013 1813
-839 192 45 412 149 577 273 98 74 252 228 322 321 90 121 181 293 230 436 15
44 20 60 42 145 47 179 58 445 26 630 -35 203 -119 431 -214 580 -107 168
-230 306 -371 417 -41 32 -80 62 -85 67 -37 29 -193 115 -260 144 -140 60
-241 89 -415 122 -53 10 -368 14 -425 5z"/>
<path d="M1580 3415 c-94 -16 -142 -25 -155 -29 -5 -1 -30 -8 -55 -15 -49 -13
-93 -28 -125 -42 -11 -5 -44 -18 -73 -29 -225 -86 -486 -293 -653 -517 -136
-182 -260 -466 -285 -651 -3 -26 -8 -49 -9 -53 -7 -10 -18 -154 -19 -234 -2
-114 14 -260 39 -370 45 -191 140 -405 254 -565 85 -122 260 -297 381 -382
212 -150 471 -250 735 -285 68 -8 285 -9 365 0 57 6 89 11 199 33 66 13 227
71 316 114 423 203 733 576 854 1030 11 41 23 89 26 105 2 17 7 41 10 55 22
113 22 392 -1 504 -2 12 -7 37 -10 56 -24 148 -96 336 -198 515 -72 126 -196
272 -330 389 -69 60 -186 145 -231 167 -16 9 -55 29 -85 46 -114 63 -324 132
-485 158 -80 13 -389 13 -465 0z"/>
</g>
</svg>
